<svg xmlns="http://www.w3.org/2000/svg" xmlns:cc="http://web.resource.org/cc/" xmlns:svg="http://www.w3.org/2000/svg" xmlns:xlink="http://www.w3.org/1999/xlink" id="svg2963" width="48" height="48"><defs id="defs3"><linearGradient id="linearGradient3703"><stop style="stop-color:black;stop-opacity:0" id="stop3705" offset="0"/><stop id="stop3711" offset=".5" style="stop-color:black;stop-opacity:1"/><stop style="stop-color:black;stop-opacity:0" id="stop3707" offset="1"/></linearGradient><linearGradient id="linearGradient3681"><stop style="stop-color:black;stop-opacity:1" id="stop3683" offset="0"/><stop style="stop-color:black;stop-opacity:0" id="stop3685" offset="1"/></linearGradient><linearGradient id="linearGradient4532"><stop style="stop-color:#000;stop-opacity:1" id="stop4534" offset="0"/><stop style="stop-color:#000;stop-opacity:0" id="stop4536" offset="1"/></linearGradient><linearGradient id="linearGradient4559"><stop style="stop-color:#fff;stop-opacity:1" id="stop4561" offset="0"/><stop style="stop-color:#fff;stop-opacity:0" id="stop4563" offset="1"/></linearGradient><linearGradient id="linearGradient4770"><stop style="stop-color:#fcf3e6;stop-opacity:1" id="stop4772" offset="0"/><stop style="stop-color:#fcf3e6;stop-opacity:0" id="stop4774" offset="1"/></linearGradient><linearGradient id="linearGradient4760"><stop style="stop-color:#fff;stop-opacity:1" id="stop4762" offset="0"/><stop style="stop-color:#fff;stop-opacity:0" id="stop4764" offset="1"/></linearGradient><linearGradient id="linearGradient4210"><stop id="stop4212" offset="0" style="stop-color:#eaba6f;stop-opacity:1"/><stop id="stop4214" offset="1" style="stop-color:#b97a1b;stop-opacity:1"/></linearGradient><linearGradient id="linearGradient3845" x1="24.99" x2="23.452" y1="49.424" y2="14.383" gradientTransform="matrix(1,0,0,1.329903,0,-8.66441)" gradientUnits="userSpaceOnUse" xlink:href="#linearGradient4210"/><linearGradient id="linearGradient4766" x1="28.063" x2="23.938" y1="19" y2="19" gradientUnits="userSpaceOnUse" xlink:href="#linearGradient4760"/><linearGradient id="linearGradient4776" x1="23.158" x2="30.008" y1="7.142" y2="11.474" gradientUnits="userSpaceOnUse" xlink:href="#linearGradient4770"/><linearGradient id="linearGradient4565" x1="23.452" x2="43.007" y1="30.555" y2="45.934" gradientUnits="userSpaceOnUse" xlink:href="#linearGradient4559"/><linearGradient id="linearGradient4538" x1="35.188" x2="26.563" y1="17.5" y2="17.438" gradientUnits="userSpaceOnUse" xlink:href="#linearGradient4532"/><radialGradient id="radialGradient3718" cx="5" cy="41.5" r="5" fx="5" fy="41.5" gradientTransform="matrix(0.990017,0,0,1.1,32.1147,-5.15)" gradientUnits="userSpaceOnUse" xlink:href="#linearGradient3681"/><radialGradient id="radialGradient3720" cx="5" cy="41.5" r="5" fx="5" fy="41.5" gradientTransform="matrix(0.99001,0,0,1.1,-14.88523,-86.15)" gradientUnits="userSpaceOnUse" xlink:href="#linearGradient3681"/><linearGradient id="linearGradient3722" x1="17.554" x2="17.554" y1="46" y2="35" gradientTransform="matrix(1.179548,0,0,1,-4.219389,0)" gradientUnits="userSpaceOnUse" xlink:href="#linearGradient3703"/></defs><metadata id="metadata4"/><g id="layer1"><g id="g3713" transform="matrix(1.000001,0,0,0.818184,-3.376531e-6,7.363559)" style="opacity:.4"><rect id="rect1907" width="4.935" height="11" x="37.065" y="35" style="opacity:1;fill:url(#radialGradient3718);fill-opacity:1;stroke:none;stroke-width:1;stroke-linecap:round;stroke-linejoin:miter;stroke-miterlimit:4;stroke-dasharray:none;stroke-dashoffset:1.20000057;stroke-opacity:1"/><rect id="rect3689" width="4.935" height="11" x="-9.935" y="-46" transform="scale(-1,-1)" style="opacity:1;fill:url(#radialGradient3720);fill-opacity:1;stroke:none;stroke-width:1;stroke-linecap:round;stroke-linejoin:miter;stroke-miterlimit:4;stroke-dasharray:none;stroke-dashoffset:1.20000057;stroke-opacity:1"/><rect id="rect3693" width="27.13" height="11" x="9.935" y="35" style="opacity:1;fill:url(#linearGradient3722);fill-opacity:1;stroke:none;stroke-width:1;stroke-linecap:round;stroke-linejoin:miter;stroke-miterlimit:4;stroke-dasharray:none;stroke-dashoffset:1.20000057;stroke-opacity:1"/></g><path style="color:#000;fill:url(#linearGradient3845);fill-opacity:1;fill-rule:nonzero;stroke:#a0670c;stroke-width:1.00000083;stroke-linecap:butt;stroke-linejoin:miter;marker:none;marker-start:none;marker-mid:none;marker-end:none;stroke-miterlimit:4;stroke-dashoffset:0;stroke-opacity:1;visibility:visible;display:block;overflow:visible" id="rect3115" d="M 11.76152,11.650434 L 23,10.962934 L 23.03125,11.650434 L 34.76662,11.650434 C 36.109591,11.650434 36.940755,12.155856 37.503255,13.544878 L 39.440755,19.375 L 39.440755,39.993876 C 39.440755,41.320398 38.359591,42.38832 37.01662,42.38832 L 9.8865199,42.38832 C 8.543549,42.38832 7.4623847,41.320398 7.4623847,39.993876 L 7.4623847,19.375 L 9.3373847,13.419878 C 9.7123847,12.343356 10.418549,11.650434 11.76152,11.650434 z"/><path id="path3847" d="M 12.492646,12.612816 L 34.058961,12.612816 C 35.31794,12.612816 36.097121,13.086589 36.624441,14.388632 L 38.440766,19.853678 L 38.440766,39.55642 C 38.440766,40.799877 37.80222,41.425927 36.543242,41.425927 L 10.234912,41.425927 C 8.9759334,41.425927 8.4623872,40.737377 8.4623872,39.49392 L 8.4623872,19.853678 L 10.220121,14.27146 C 10.571668,13.262348 11.233667,12.612816 12.492646,12.612816 z" style="color:#000;fill:none;fill-opacity:1;fill-rule:nonzero;stroke:url(#linearGradient4565);stroke-width:1.00000095;stroke-linecap:butt;stroke-linejoin:miter;marker:none;marker-start:none;marker-mid:none;marker-end:none;stroke-miterlimit:4;stroke-dashoffset:0;stroke-opacity:1;visibility:visible;display:block;overflow:visible;opacity:.50549451"/><path style="opacity:.50549454;color:#000;fill:#000;fill-opacity:.75568181;fill-rule:evenodd;stroke:none;stroke-width:1;stroke-linecap:butt;stroke-linejoin:miter;marker:none;marker-start:none;marker-mid:none;marker-end:none;stroke-miterlimit:4;stroke-dasharray:none;stroke-dashoffset:0;stroke-opacity:1;visibility:visible;display:inline;overflow:visible" id="path4740" d="M 8.375,19.875 L 23.0625,20.25 L 23.024674,15.562832 C 23.024674,15.562832 29.583743,15.406064 29.583743,15.406064 C 29.583743,15.406064 23.018096,15.187889 23.018096,15.187889 L 23,13.125 L 22.710804,13.093243 L 22.625,19 L 8.375,19.875 z"/><path style="opacity:1;color:#000;fill:#f5ddb8;fill-opacity:1;fill-rule:evenodd;stroke:none;stroke-width:1;stroke-linecap:butt;stroke-linejoin:miter;marker:none;marker-start:none;marker-mid:none;marker-end:none;stroke-miterlimit:4;stroke-dasharray:none;stroke-dashoffset:0;stroke-opacity:1;visibility:visible;display:inline;overflow:visible" id="path4742" d="M 8.5,19.8125 L 22.625,19.03125 L 22.75,12.125 L 22.28125,18.53125 L 9.3125,19.4375 L 8.5,19.8125 z"/><path style="opacity:1;color:#000;fill:#dcbd8e;fill-opacity:1;fill-rule:evenodd;stroke:none;stroke-width:1;stroke-linecap:butt;stroke-linejoin:miter;marker:none;marker-start:none;marker-mid:none;marker-end:none;stroke-miterlimit:4;stroke-dasharray:none;stroke-dashoffset:0;stroke-opacity:1;visibility:visible;display:inline;overflow:visible" id="path4744" d="M 22.3125,18.5625 L 8,19.6875 L 9.875,13.4375 C 10.374807,12.447628 11.271594,12.053224 12.4375,12.0625 L 22.78125,11.4375 L 22.3125,18.5625 z"/><path style="opacity:.42857143;color:#000;fill:url(#linearGradient4538);fill-opacity:1;fill-rule:evenodd;stroke:none;stroke-width:1;stroke-linecap:butt;stroke-linejoin:miter;marker:none;marker-start:none;marker-mid:none;marker-end:none;stroke-miterlimit:4;stroke-dasharray:none;stroke-dashoffset:0;stroke-opacity:1;visibility:visible;display:inline;overflow:visible" id="path4746" d="M 23,13.125 L 23,19.0625 L 37.6875,19.125 L 35.464619,13.195313 L 23,13.125 z"/><path style="opacity:1;color:#000;fill:#c68b31;fill-opacity:1;fill-rule:evenodd;stroke:#a0670c;stroke-width:1;stroke-linecap:butt;stroke-linejoin:round;marker:none;marker-start:none;marker-mid:none;marker-end:none;stroke-miterlimit:4;stroke-dasharray:none;stroke-dashoffset:0;stroke-opacity:1;visibility:visible;display:inline;overflow:visible" id="path4748" d="M 39.3125,19.375 L 24.75,12.625 L 24.5,4.9375 L 36.07369,11.644276 C 36.504454,11.959366 36.976863,12.399526 37.25,12.9375 L 39.3125,19.375 z"/><path style="opacity:.23076923;color:#000;fill:url(#linearGradient4766);fill-opacity:1;fill-rule:evenodd;stroke:none;stroke-width:1;stroke-linecap:butt;stroke-linejoin:round;marker:none;marker-start:none;marker-mid:none;marker-end:none;stroke-miterlimit:4;stroke-dasharray:none;stroke-dashoffset:0;stroke-opacity:1;visibility:visible;display:inline;overflow:visible" id="path4758" d="M 23,19 L 23,20 L 38,20 L 37.5625,19 L 23,19 z"/><path style="opacity:1;color:#000;fill:url(#linearGradient4776);fill-opacity:1;fill-rule:evenodd;stroke:none;stroke-width:1;stroke-linecap:butt;stroke-linejoin:round;marker:none;marker-start:none;marker-mid:none;marker-end:none;stroke-miterlimit:4;stroke-dasharray:none;stroke-dashoffset:0;stroke-opacity:1;visibility:visible;display:inline;overflow:visible" id="path4768" d="M 25.190679,12.246913 L 25.013902,5.8387581 L 35.001786,11.628195 L 25.500038,6.4132823 L 25.676815,11.937554 L 29.168155,14.103069 L 25.190679,12.246913 z"/><path style="opacity:.10989009;color:#000;fill:#fff;fill-opacity:1;fill-rule:evenodd;stroke:none;stroke-width:1;stroke-linecap:butt;stroke-linejoin:miter;marker:none;marker-start:none;marker-mid:none;marker-end:none;stroke-miterlimit:4;stroke-dasharray:none;stroke-dashoffset:0;stroke-opacity:1;visibility:visible;display:inline;overflow:visible" id="path4528" d="M 23,19 L 22.9375,15.5625 L 29.8125,15.4375 L 30.1875,15.6875 L 23.1875,15.75 L 23,19 z"/></g></svg>