<svg xmlns="http://www.w3.org/2000/svg" xmlns:cc="http://web.resource.org/cc/" xmlns:svg="http://www.w3.org/2000/svg" id="svg2" width="446.252" height="178.484" version="1.0"><defs id="defs4"><marker id="Arrow1Mend" orient="auto" refX="0" refY="0" style="overflow:visible"><path id="path9067" d="M 0,0 L 5,-5 L -12.5,0 L 5,5 L 0,0 z" transform="matrix(-0.4,0,0,-0.4,-4,0)" style="fill-rule:evenodd;stroke:#000;stroke-width:1pt;marker-start:none"/></marker><marker id="Arrow1Send" orient="auto" refX="0" refY="0" style="overflow:visible"><path id="path9073" d="M 0,0 L 5,-5 L -12.5,0 L 5,5 L 0,0 z" transform="matrix(-0.2,0,0,-0.2,-1.2,0)" style="fill-rule:evenodd;stroke:#000;stroke-width:1pt;marker-start:none"/></marker><marker id="Arrow2Lstart" orient="auto" refX="0" refY="0" style="overflow:visible"><path id="path3309" d="M 8.7185878,4.0337352 L -2.2072895,0.016013256 L 8.7185884,-4.0017078 C 6.97309,-1.6296469 6.9831476,1.6157441 8.7185878,4.0337352 z" transform="matrix(1.1,0,0,1.1,1.1,0)" style="font-size:12px;fill-rule:evenodd;stroke-width:.625;stroke-linejoin:round"/></marker><marker id="TriangleInL" orient="auto" refX="0" refY="0" style="overflow:visible"><path id="path3238" d="M 5.77,0 L -2.88,5 L -2.88,-5 L 5.77,0 z" transform="scale(-0.8,-0.8)" style="fill-rule:evenodd;stroke:#000;stroke-width:1pt;marker-start:none"/></marker><marker id="Arrow2Lend" orient="auto" refX="0" refY="0" style="overflow:visible"><path id="path3306" d="M 8.7185878,4.0337352 L -2.2072895,0.016013256 L 8.7185884,-4.0017078 C 6.97309,-1.6296469 6.9831476,1.6157441 8.7185878,4.0337352 z" transform="matrix(-1.1,0,0,-1.1,-1.1,0)" style="font-size:12px;fill-rule:evenodd;stroke-width:.625;stroke-linejoin:round"/></marker><marker id="TriangleOutL" orient="auto" refX="0" refY="0" style="overflow:visible"><path id="path3229" d="M 5.77,0 L -2.88,5 L -2.88,-5 L 5.77,0 z" transform="scale(0.8,0.8)" style="fill-rule:evenodd;stroke:#000;stroke-width:1pt;marker-start:none"/></marker><marker id="StopL" orient="auto" refX="0" refY="0" style="overflow:visible"><path id="path3220" d="M 0,5.65 L 0,-5.65" transform="scale(0.8,0.8)" style="fill:none;fill-opacity:.75;fill-rule:evenodd;stroke:#000;stroke-width:1pt"/></marker><marker id="StopM" orient="auto" refX="0" refY="0" style="overflow:visible"><path id="path3217" d="M 0,5.65 L 0,-5.65" transform="scale(0.4,0.4)" style="fill:none;fill-opacity:.75;fill-rule:evenodd;stroke:#000;stroke-width:1pt"/></marker></defs><metadata id="metadata7"/><g id="layer1" transform="translate(-13.909738,-141.77572)"><path style="fill:none;fill-opacity:.75;fill-rule:evenodd;stroke:#000;stroke-width:2;stroke-linecap:butt;stroke-linejoin:miter;marker-start:url(#StopL);marker-mid:url(#StopL);marker-end:url(#StopL);stroke-miterlimit:10;stroke-dasharray:none;stroke-opacity:1" id="path6247" d="M 69.690373,151.81572 L 263.995,151.81572 L 458.29963,151.81572"/><path style="fill:none;fill-opacity:.75;fill-rule:evenodd;stroke:#000;stroke-width:2;stroke-linecap:butt;stroke-linejoin:miter;marker-start:url(#StopL);marker-mid:url(#StopL);marker-end:url(#StopL);stroke-miterlimit:10;stroke-dasharray:none;stroke-opacity:1" id="path6249" d="M 69.690373,189.61692 L 166.84268,189.61692 L 263.995,189.61692 L 361.14732,189.61692 L 458.29963,189.61692"/><path style="fill:none;fill-opacity:.75;fill-rule:evenodd;stroke:#000;stroke-width:2;stroke-linecap:butt;stroke-linejoin:miter;marker-start:url(#StopL);marker-mid:url(#StopL);marker-end:url(#StopL);stroke-miterlimit:10;stroke-dasharray:none;stroke-opacity:1" id="path6251" d="M 361.14732,227.41813 L 409.72347,227.41813 L 458.29963,227.41813 M 69.690373,227.41813 L 118.26653,227.41813 L 166.84269,227.41813 L 215.41885,227.41813 L 263.995,227.41813"/><text style="font-size:14px;font-style:normal;font-variant:normal;font-weight:400;font-stretch:normal;text-align:start;line-height:125%;writing-mode:lr-tb;text-anchor:start;fill:#000;fill-opacity:1;stroke:none;stroke-width:1px;stroke-linecap:butt;stroke-linejoin:miter;stroke-opacity:1;font-family:Bitstream Vera Sans" id="text6253" x="14.286" y="156.648" xml:space="preserve"><tspan id="tspan6255" x="14.286" y="156.648">Level 0</tspan></text><text style="font-size:14px;font-style:normal;font-variant:normal;font-weight:400;font-stretch:normal;text-align:start;line-height:125%;writing-mode:lr-tb;text-anchor:start;fill:#000;fill-opacity:1;stroke:none;stroke-width:1px;stroke-linecap:butt;stroke-linejoin:miter;stroke-opacity:1;font-family:Bitstream Vera Sans" id="text6257" x="13.571" y="193.791" xml:space="preserve"><tspan id="tspan6259" x="13.571" y="193.791">Level 1</tspan></text><text style="font-size:14px;font-style:normal;font-variant:normal;font-weight:400;font-stretch:normal;text-align:start;line-height:125%;writing-mode:lr-tb;text-anchor:start;fill:#000;fill-opacity:1;stroke:none;stroke-width:1px;stroke-linecap:butt;stroke-linejoin:miter;stroke-opacity:1;font-family:Bitstream Vera Sans" id="text6261" x="13.571" y="230.051" xml:space="preserve"><tspan id="tspan6263" x="13.571" y="230.051">Level 2</tspan></text><path style="fill:none;fill-opacity:.75;fill-rule:evenodd;stroke:#000;stroke-width:2;stroke-linecap:butt;stroke-linejoin:miter;marker-start:url(#StopL);marker-mid:url(#StopL);marker-end:url(#StopL);stroke-miterlimit:10;stroke-dasharray:none;stroke-opacity:1" id="path6269" d="M 117.57616,265.21933 L 141.86424,265.21933 L 166.15232,265.21933 L 190.4404,265.21933 L 214.72848,265.21933"/><path id="path6271" d="M 70.5625,309.21875 L 70.5625,311.21875 L 119.125,311.21875 L 143.40625,311.21875 L 167.71875,311.21875 L 192,311.21875 L 216.28125,311.21875 L 264.84375,311.21875 L 362,311.21875 L 410.59375,311.21875 L 459.15625,311.21875 L 459.15625,309.21875 L 410.59375,309.21875 L 362,309.21875 L 264.84375,309.21875 L 216.28125,309.21875 L 192,309.21875 L 167.71875,309.21875 L 143.40625,309.21875 L 119.125,309.21875 L 70.5625,309.21875 z" style="fill:#00be00;fill-opacity:1;fill-rule:evenodd;stroke:none;stroke-width:2;stroke-linecap:butt;stroke-linejoin:miter;stroke-miterlimit:10;stroke-opacity:1"/><path id="path4177" d="M 70.552513,319.25933 L 70.552513,301.17933" style="fill:#00be00;fill-opacity:1;fill-rule:evenodd;stroke:#00be00;stroke-width:1.6pt;stroke-opacity:1"/><path id="path4179" d="M 119.12867,319.25933 L 119.12867,301.17933" style="fill:#00be00;fill-opacity:1;fill-rule:evenodd;stroke:#00be00;stroke-width:1.6pt;stroke-opacity:1"/><path id="path4181" d="M 143.41675,319.25933 L 143.41675,301.17933" style="fill:#00be00;fill-opacity:1;fill-rule:evenodd;stroke:#00be00;stroke-width:1.6pt;stroke-opacity:1"/><path id="path4183" d="M 167.70483,319.25933 L 167.70483,301.17933" style="fill:#00be00;fill-opacity:1;fill-rule:evenodd;stroke:#00be00;stroke-width:1.6pt;stroke-opacity:1"/><path id="path4185" d="M 191.99291,319.25933 L 191.99291,301.17933" style="fill:#00be00;fill-opacity:1;fill-rule:evenodd;stroke:#00be00;stroke-width:1.6pt;stroke-opacity:1"/><path id="path4187" d="M 216.28099,319.25933 L 216.28099,301.17933" style="fill:#00be00;fill-opacity:1;fill-rule:evenodd;stroke:#00be00;stroke-width:1.6pt;stroke-opacity:1"/><path id="path4189" d="M 264.85714,319.25933 L 264.85714,301.17933" style="fill:#00be00;fill-opacity:1;fill-rule:evenodd;stroke:#00be00;stroke-width:1.6pt;stroke-opacity:1"/><path id="path4191" d="M 362.00946,319.25933 L 362.00946,301.17933" style="fill:#00be00;fill-opacity:1;fill-rule:evenodd;stroke:#00be00;stroke-width:1.6pt;stroke-opacity:1"/><path id="path4193" d="M 410.58561,319.25933 L 410.58561,301.17933" style="fill:#00be00;fill-opacity:1;fill-rule:evenodd;stroke:#00be00;stroke-width:1.6pt;stroke-opacity:1"/><path id="path4195" d="M 459.16177,319.25933 L 459.16177,301.17933" style="fill:#00be00;fill-opacity:1;fill-rule:evenodd;stroke:#00be00;stroke-width:1.6pt;stroke-opacity:1"/><text style="font-size:14px;font-style:normal;font-variant:normal;font-weight:400;font-stretch:normal;text-align:start;line-height:125%;writing-mode:lr-tb;text-anchor:start;fill:#000;fill-opacity:1;stroke:none;stroke-width:1px;stroke-linecap:butt;stroke-linejoin:miter;stroke-opacity:1;font-family:Bitstream Vera Sans" id="text7242" x="12.536" y="267.55" xml:space="preserve"><tspan id="tspan7244" x="12.536" y="267.55">Level 3</tspan></text><text style="font-size:14px;font-style:normal;font-variant:normal;font-weight:400;font-stretch:normal;text-align:start;line-height:125%;writing-mode:lr-tb;text-anchor:start;opacity:1;color:#000;fill:#00be00;fill-opacity:1;fill-rule:evenodd;stroke:none;stroke-width:2;stroke-linecap:butt;stroke-linejoin:miter;marker:none;marker-start:url(#StopL);marker-mid:url(#StopL);marker-end:url(#StopL);stroke-miterlimit:10;stroke-dasharray:none;stroke-dashoffset:0;stroke-opacity:1;visibility:visible;display:inline;overflow:visible;enable-background:accumulate;font-family:Bitstream Vera Sans" id="text7246" x="14.336" y="312.934" xml:space="preserve"><tspan id="tspan7248" x="14.336" y="312.934">Leaf</tspan></text></g></svg>